<?xml version="1.0" encoding="utf-8"?>
<!-- Svg Vector Icons : http://www.onlinewebfonts.com/icon -->
<!DOCTYPE svg PUBLIC "-//W3C//DTD SVG 1.1//EN" "http://www.w3.org/Graphics/SVG/1.1/DTD/svg11.dtd">
<svg version="1.1" xmlns="http://www.w3.org/2000/svg" xmlns:xlink="http://www.w3.org/1999/xlink" x="0px" y="0px" viewBox="0 0 256 256" enable-background="new 0 0 256 256" xml:space="preserve">
<metadata> Svg Vector Icons : http://www.onlinewebfonts.com/icon </metadata>
<g><g><path fill="#000000" d="M145,229v-16.7h101V229H145z M145,161.7h101v17H145V161.7z M145,77.4h101v17H145V77.4z M145,27h101v16.7H145V27z M102.7,246H18.4c-4.5,0-8.4-3.8-8.4-8.4v-84.3c0-4.8,3.8-8.6,8.4-8.6h84.3c4.8,0,8.4,3.8,8.4,8.6v84.3C111,242.2,107.5,246,102.7,246L102.7,246z M94.3,161.7H27V229h67.4V161.7z M102.7,111H18.4c-4.5,0-8.4-3.6-8.4-8.4V18.4c0-4.5,3.8-8.4,8.4-8.4h84.3c4.8,0,8.4,3.8,8.4,8.4v84.3C111,107.5,107.5,111,102.7,111L102.7,111z M94.3,27H27v67.4h67.4V27z"/></g></g>
</svg>