<?xml version="1.0" encoding="utf-8"?>
<!-- Svg Vector Icons : http://www.onlinewebfonts.com/icon -->
<!DOCTYPE svg PUBLIC "-//W3C//DTD SVG 1.1//EN" "http://www.w3.org/Graphics/SVG/1.1/DTD/svg11.dtd">
<svg version="1.1" xmlns="http://www.w3.org/2000/svg" xmlns:xlink="http://www.w3.org/1999/xlink" x="0px" y="0px" viewBox="0 0 256 256" enable-background="new 0 0 256 256" xml:space="preserve">
<metadata> Svg Vector Icons : http://www.onlinewebfonts.com/icon </metadata>
<g><g><path fill="#000000" d="M193.7,106.9v-0.1c-0.2,0-0.3,0-0.5,0c0,0-0.1,0-0.1,0c-0.6-0.1-1.2-0.2-1.8-0.3c-3.1-0.8-5.3-3.4-5.3-6.5c0-2.1,1.1-4,2.8-5.3h-0.1c10.4-8.9,16.4-23.7,16.4-38.1c0-22.6-14.8-38.2-38.4-38.2c-14,0-24.9,5.5-31.5,14.8c15.5,6.3,24.7,20.8,24.7,39.4c0,16.2-6.9,32.8-18.8,42.9h0.1c-1.9,1.4-3.2,3.5-3.2,5.9c0,3.5,2.6,6.4,6,7.3c0.7,0.1,1.4,0.2,2,0.3c0,0,0.1,0,0.1,0c0.2,0,0.4,0,0.6,0v0.1c34.2,5.3,59.8,19.8,59.8,41.9c0,7.1-2.7,14.5-7.4,21.6c27-9.7,46.7-30.2,46.7-48.5C246,124.5,223.6,111.6,193.7,106.9z M130,134.8v-0.1c-0.2,0-0.4,0-0.6,0c0,0-0.1,0-0.1,0c-0.7-0.1-1.3-0.2-2-0.3c-3.5-0.9-6-3.8-6-7.3c0-2.4,1.3-4.6,3.2-5.9h-0.1c11.9-10,18.8-26.7,18.8-42.9c0-25.4-17-43-43.9-43c-26.9,0-43.9,17.6-43.9,43c0,16.2,6.9,32.8,18.8,42.9h-0.2c2.1,1.4,3.4,3.6,3.4,6.2c0,3.4-2.4,6.2-5.8,7.2c-0.9,0.1-1.7,0.2-2.6,0.4c-0.2,0-0.5,0-0.7-0.1v0.2C34.9,140.5,10,154.9,10,176.7c0,28.2,41.9,60.9,89.9,60.9c48,0,89.9-32.7,89.9-60.9C189.8,154.6,164.2,140.1,130,134.8z"/></g></g>
</svg>