<?xml version="1.0" encoding="utf-8"?>
<!-- Svg Vector Icons : http://www.onlinewebfonts.com/icon -->
<!DOCTYPE svg PUBLIC "-//W3C//DTD SVG 1.1//EN" "http://www.w3.org/Graphics/SVG/1.1/DTD/svg11.dtd">
<svg version="1.1" xmlns="http://www.w3.org/2000/svg" xmlns:xlink="http://www.w3.org/1999/xlink" x="0px" y="0px" viewBox="0 0 256 256" enable-background="new 0 0 256 256" xml:space="preserve">
<metadata> Svg Vector Icons : http://www.onlinewebfonts.com/icon </metadata>
<g><g><g><path fill="#000000" d="M10,105.3v43.1l76.2-0.1l76.2-0.1v-42.9V62.4l-76.2-0.1L10,62.2V105.3z"/><path fill="#000000" d="M164,135.4v40.6h8.9h8.9l0.6-2.9c1.3-7.1,5.8-12.8,12.3-15.9c3.5-1.7,3.7-1.7,9.1-1.7c5.4,0,5.6,0,9.1,1.7c6.5,3.1,11,8.8,12.4,15.6l0.6,2.7h8.9h8.9v-3.4c0-2.7,0.2-3.5,0.9-4.1c1.2-1,1.6-4.2,1.3-8.9c-0.3-3.2-0.5-3.9-1.4-4.7c-0.6-0.5-1.8-2.1-2.5-3.5c-2.6-4.9-8.9-13.7-12.4-17.3c-3.8-3.9-8.9-7.9-14.4-11.4c-1.9-1.2-7-5-11.2-8.4c-9.6-7.7-13.8-10.6-19.8-13.6c-6.2-3.1-12-5-16.5-5.3l-3.7-0.3L164,135.4L164,135.4z M177.1,101.6c10.7,4.4,21.6,12.8,28.4,21.9l2.9,3.9l-19.3,0.1c-10.6,0-19.4,0-19.5,0c-0.1-0.1-0.3-6.5-0.5-14.2l-0.3-14l2.2,0.3C172.3,99.8,175,100.7,177.1,101.6z"/><path fill="#000000" d="M16.3,150.1c-0.7,0.1-0.8,1.2-0.8,11.7v11.5h17.3h17.2l0.6-1.9c1.3-5,5.7-10.6,10.3-13.2c10.9-6.2,25.3-1.8,30.7,9.4c0.5,1.1,1.3,3.5,1.8,5.3l0.7,3.3h34.3h34.3v-12.9v-12.9h-2.9C143.9,150.1,16.9,150.1,16.3,150.1z"/><path fill="#000000" d="M65.3,161.4c-3.5,1.5-5.8,3.3-7.8,6.5c-3.3,5-3.6,11.2-0.9,16.7c5.6,11.4,21.6,12.5,28.8,1.9c4.8-7,3.7-16-2.5-21.7c-3.5-3.2-6.6-4.4-11.4-4.4C68.8,160.4,67.2,160.7,65.3,161.4z M75,166.5c2.3,0.7,5.3,3.2,6.5,5.6c1.4,2.6,1.4,7.1,0,9.7c-2.2,4.1-5.7,6.2-10.4,6.2c-9.4,0-14.3-11.1-8-18.3C66.3,166.2,70.5,165.1,75,166.5z"/><path fill="#000000" d="M68.1,169.2c-1.5,0.6-3.6,2.6-4.4,4.2c-0.4,0.7-0.6,2.3-0.6,3.6c0,4.8,3.6,8.4,8.5,8.4c8.3,0,11.7-10.1,5.1-15.2c-1.3-1-2.3-1.3-4.5-1.4C70.5,168.7,68.7,168.9,68.1,169.2z"/><path fill="#000000" d="M197.7,161.3c-3.5,1.4-7.5,5.2-9.1,8.8c-5,11.1,3,23.6,15,23.7c4.2,0,7.2-1,10.4-3.3c10-7.6,8.4-23.3-2.9-28.6C207.5,160.1,201.3,159.9,197.7,161.3z M208.5,166.8c2.4,1.1,5.4,4.5,6.1,6.9c2.2,7.3-3,14.4-10.6,14.4c-4.5,0-8-2.1-10.2-6.2c-1.3-2.5-1.3-7.1,0-9.8c1.2-2.2,3.9-4.7,6.1-5.5C202.3,165.7,206.3,165.8,208.5,166.8z"/><path fill="#000000" d="M199.9,169.6c-6.2,3.3-6.1,11.9,0.2,15.1c3.6,1.9,9,0.2,11.2-3.4c1.3-2.2,1.5-5.9,0.5-7.9c-0.9-1.7-3-3.6-4.6-4.2C205.1,168.4,201.7,168.6,199.9,169.6z"/></g></g></g>
</svg>