<?xml version="1.0" encoding="utf-8"?>
<!-- Svg Vector Icons : http://www.onlinewebfonts.com/icon -->
<!DOCTYPE svg PUBLIC "-//W3C//DTD SVG 1.1//EN" "http://www.w3.org/Graphics/SVG/1.1/DTD/svg11.dtd">
<svg version="1.1" xmlns="http://www.w3.org/2000/svg" xmlns:xlink="http://www.w3.org/1999/xlink" x="0px" y="0px" viewBox="0 0 256 256" enable-background="new 0 0 256 256" xml:space="preserve">
<metadata> Svg Vector Icons : http://www.onlinewebfonts.com/icon </metadata>
<g><g><g><path fill="#000000" d="M116.6,10.3c-14.8,1.5-28.3,5.4-41.5,12.1c-12.5,6.3-22.1,13.4-31.8,23.4c-18,18.5-28.8,41.1-32.6,67.6c-0.8,5.4-0.8,23.6,0,29.1c4,27.9,15.7,51.2,35.2,70.1c29.6,28.7,71.1,39.8,111.2,29.8c28.1-7.1,53.3-25,69.8-49.8c6.6-9.9,12.6-23.8,15.6-35.5c3.7-14.8,4.7-31.4,2.5-45.7c-3.6-24.5-14.9-47.5-31.8-65c-18.7-19.4-41.7-31.2-68.5-35.3C138.7,10.1,122.5,9.7,116.6,10.3z M141,47.4c8.6,1.5,17.8,4.4,17.8,5.8c0,1-2.6,4.2-3.4,4.2c-0.3,0-0.9,0.4-1.3,0.8c-0.6,0.7-0.7,1.5-0.5,4.5c0.4,4.8,0,5.3-4.3,5.3c-5.8,0-12.2,2.5-21.8,8.5c-5.3,3.3-7.1,3.8-8.8,2.1c-1.4-1.4-1-2.5,1-2.4c0.9,0.1,2-0.1,2.5-0.5c0.8-0.6,0.8-0.8,0.3-2.1c-0.3-0.8-1.7-2.5-3.1-3.7c-1.9-1.8-3.2-2.5-5.8-3.3c-7-2.1-12.2,0.7-15.8,8.5c-1.8,3.8-3.6,6.1-7.1,8.6c-3.7,2.8-4.8,5.8-2.9,7.6c1,0.9,3.4,1.1,7.9,0.4c2.6-0.4,3.1,0,3.8,2.6c0.6,2.2,1.1,2.5,2.3,1.6c0.8-0.6,1-1.4,1.2-6.1c0.2-4.5,0.5-6,1.6-8.4c1.6-3.8,1.9-4.2,2.8-3c0.5,0.7,0.6,1.7,0.4,4.6l-0.3,3.7l1.7,2c1.9,2.3,1.9,2.3,1,4.3c-1.3,3.1-4.6,5.1-12,7.2c-12.1,3.5-18.2,8.1-16.4,12.5c0.8,1.9,0,2.8-2.5,2.8c-2.6,0-4,1-4,2.9c0,3.2,2.9,5.9,6.4,5.9c1.6,0,2.3-0.4,4.8-2.6c5.4-4.8,7-4.9,10.5-0.6c2.4,3,4,4,4.9,3.1c1-0.8,0.8-1.5-1.2-5.4c-1-1.9-1.8-3.7-1.8-3.9c0-1,1.6-0.1,3.8,2c3.4,3.4,6.1,4.5,8.4,3.6c1.8-0.7,4.8-3.2,5.9-5c2.2-3.6,10.3-4.9,13.1-2.1c2.5,2.5-1.8,6.2-7.3,6.2c-1,0-2.4,0.3-3.1,0.7c-1.1,0.6-1.4,1-1.4,2.3c0,2,1.5,3.9,3.5,4.2c0.8,0.1,2,0.7,2.5,1.2c1,0.9,1.2,1.5,1.6,4.9c0.6,3.8,5.2,13.1,8.7,17c2.6,2.9,5.6,4.8,7.7,4.8c3.2,0,13-6.4,13-8.4c0-1.7-2-2.6-5.7-2.6c-1.6,0-3.6-0.2-4.3-0.5c-2.9-1.1-5.2-4.7-4.6-7.1c0.5-1.9,2-1.8,7,0.6c6.1,3,7.6,3.3,15.2,3.6l6.4,0.3l1.1,1.6c1,1.5,2,4.5,4.2,12.7c1.1,4,3.1,7.8,4.3,8c1.3,0.2,2.6-1.5,2.9-3.9c0.6-4.5,1.2-7.2,1.9-8c0.4-0.4,1.8-1.1,3.1-1.3c3.1-0.7,4.5-1.6,4.5-2.9c0-1.3,0.8-2.2,2.1-2.2c1.4,0,5.6,3.6,8.8,7.4c2.6,3.2,2.6,3.2,2.1,4.9c-0.9,2.9-5.1,11.1-7.8,15.3c-3.6,5.6-7.2,9.8-12.8,15.2c-12.8,12.2-29.8,19.9-47.7,21.8c-5.6,0.6-13.3,0.6-13.6,0.1c-0.3-0.6,4.4-7.4,7.8-11.1c3.3-3.7,3.8-4.8,3.3-7.6c-1.2-6.3-0.1-9.9,4.9-16.8c4.7-6.5,6.3-10.9,4.2-11.5c-5.2-1.5-12.1-7.3-14.7-12.4c-1.3-2.5-3.1-7.6-4.2-11.8l-0.4-1.6l-3.6-0.1c-2.1-0.1-5.4,0.2-7.7,0.6c-3.6,0.7-4.1,0.7-5.6,0.1c-0.9-0.4-2.3-1.6-3.1-2.7c-0.8-1.1-2-2.3-2.6-2.6c-1.7-0.9-7.1-1.3-10.9-0.9c-8.9,0.9-17.1,8.6-21.8,20.1c-1.5,3.6-1.4,4.2,0.3,7.6c3.1,5.9,8.6,9.1,17.4,10.2c2.4,0.3,5.2,0.9,6.1,1.3c3.4,1.7,6.2,6.4,6.9,11.6c1.6,12.2,2,15,3,19.1c0.6,2.5,1,4.7,0.9,4.8c-0.2,0.3-7.5-2.8-11.8-5c-20-10.2-35.5-29.3-41.3-50.8c-7.7-28.6,0.2-58.4,21-79.2c13.2-13.2,29.8-21.2,48.9-23.6C123.8,46.2,135.9,46.5,141,47.4z"/></g></g></g>
</svg>