<?xml version="1.0" encoding="utf-8"?>
<!-- Svg Vector Icons : http://www.onlinewebfonts.com/icon -->
<!DOCTYPE svg PUBLIC "-//W3C//DTD SVG 1.1//EN" "http://www.w3.org/Graphics/SVG/1.1/DTD/svg11.dtd">
<svg version="1.1" xmlns="http://www.w3.org/2000/svg" xmlns:xlink="http://www.w3.org/1999/xlink" x="0px" y="0px" viewBox="0 0 256 256" enable-background="new 0 0 256 256" xml:space="preserve">
<metadata> Svg Vector Icons : http://www.onlinewebfonts.com/icon </metadata>
<g><g><path fill="#000000" d="M44.9,10v236l83.1-53.8l83.1,53.8V10H44.9z M197.5,221.1L128,176l-69.5,45.1V23.6h139.1V221.1z"/><path fill="#000000" d="M172.6,46.2l9.8,9.4L83.4,158.6l-9.8-9.4L172.6,46.2z"/><path fill="#000000" d="M103.7,83.9c3,3.3,7.4,5.2,12.3,5.2c0.6,0,1.3,0,1.9-0.1c5-0.5,9.9-2.8,13.9-6.4c4-3.7,6.7-8.4,7.7-13.3c1-5.5-0.3-10.8-3.8-14.6c-3.4-3.8-8.6-5.6-14.2-5.1c-5,0.5-9.9,2.8-13.9,6.4c-4,3.7-6.7,8.4-7.7,13.3C98.9,74.8,100.2,80.1,103.7,83.9L103.7,83.9z M116.7,66c3.6-3.3,7.8-3.5,9-2.2c1.8,2-0.7,6.6-3,8.7c-1.8,1.7-4,2.7-6.1,2.9c-0.6,0-2.1,0.1-2.9-0.7C111.9,72.8,114.3,68.2,116.7,66z"/><path fill="#000000" d="M137.7,116.1c-5,0.5-9.9,2.8-13.9,6.4c-4,3.7-6.7,8.4-7.7,13.3c-1,5.5,0.3,10.8,3.8,14.6l0,0c3,3.3,7.4,5.2,12.3,5.2c0.6,0,1.3,0,1.9-0.1c5-0.5,9.9-2.8,13.9-6.4c4-3.7,6.7-8.4,7.7-13.3c1-5.5-0.3-10.8-3.8-14.6C148.4,117.4,143.2,115.6,137.7,116.1z M138.8,139.1c-3.6,3.3-7.8,3.5-9,2.2c-1.8-2,0.7-6.6,3-8.7c1.8-1.7,4-2.7,6.1-2.9c0.6-0.1,2.1-0.1,2.9,0.7C143.7,132.3,141.2,136.9,138.8,139.1z"/></g></g>
</svg>