<?xml version="1.0" encoding="utf-8"?>
<!-- Svg Vector Icons : http://www.onlinewebfonts.com/icon -->
<!DOCTYPE svg PUBLIC "-//W3C//DTD SVG 1.1//EN" "http://www.w3.org/Graphics/SVG/1.1/DTD/svg11.dtd">
<svg version="1.1" xmlns="http://www.w3.org/2000/svg" xmlns:xlink="http://www.w3.org/1999/xlink" x="0px" y="0px" viewBox="0 0 256 256" enable-background="new 0 0 256 256" xml:space="preserve">
<metadata> Svg Vector Icons : http://www.onlinewebfonts.com/icon </metadata>
<g><g><g><path fill="#000000" d="M19.1,47.6c-3,1.2-6.1,4.1-7.7,7.3c-1,2-1.1,3.1-1.3,9.9L10,72.5h100.3h100.3v-7.1c0-4-0.2-8-0.5-9c-0.9-2.9-3.8-6.3-6.8-8l-2.7-1.5l-89.5-0.1C23.4,46.6,21.5,46.6,19.1,47.6z"/><path fill="#000000" d="M10.2,129.9l0.1,36.5l1.3,2.5c1.8,3.3,5.3,6.3,8.3,7.3c2.1,0.6,11.1,0.7,66.7,0.7h64.2l1.3,3.3c4.2,10.4,14.4,20.5,25.3,25.3c7.2,3.1,10.5,3.8,19.5,3.8c6.9,0,8.6-0.1,12.2-1.1c17.6-4.8,30.3-17.1,35.5-34.5c1.2-4,1.4-5.1,1.4-12.9c0-7.5-0.1-9-1.1-12.7c-2.2-8.1-6.2-15.3-12-21.3c-5.5-5.8-12.6-10.4-19.6-12.8l-2.4-0.8l-0.1-9.8l-0.1-9.9H110.4H10.1L10.2,129.9z M208,123.7c10.6,3.4,18.7,10.2,23.4,19.8c2.7,5.5,3.7,9,4,15.1c1,18-10.9,34.2-28.7,39.1c-4.3,1.2-14.6,1.2-19,0c-10.5-2.8-19.8-10.3-24.6-20.1c-3.2-6.3-3.9-9.5-3.9-17.1c0-7.6,0.7-10.7,3.9-17.1c5.3-10.7,15.1-18.2,27.2-20.7C194,121.9,204.1,122.5,208,123.7z M50.3,140.5c2.2,0.9,3.2,2.5,3.2,5.1c0,1.7-0.3,2.4-1.4,3.6l-1.4,1.4H38.6c-13.3,0-14.2-0.2-15.4-2.9c-0.7-1.8-0.3-4.6,0.8-5.9c1.4-1.6,3.4-1.8,14.2-1.9C46.2,139.8,49.1,139.9,50.3,140.5z M93,141.4c0.8,0.8,1.6,2,1.7,2.6c0.3,1.9-0.5,4.4-2,5.5c-1.2,0.9-1.9,1-15.8,1H62.3l-1.5-1.4c-3-2.6-2.1-7.8,1.6-8.8c0.9-0.3,7.5-0.4,15.4-0.4l13.8,0.1L93,141.4z M132.8,140.5c2.2,0.9,3.2,2.5,3.2,5.1c0,1.7-0.3,2.4-1.4,3.6l-1.4,1.4h-14.5c-15.9,0-16.6-0.1-17.8-2.9c-0.7-1.8-0.3-4.6,0.8-5.9c1.4-1.6,3.5-1.8,16.7-1.9C128.3,139.8,131.5,139.9,132.8,140.5z M152.1,140c0,0.1-0.6,2.2-1.5,4.6c-0.8,2.4-1.5,4.7-1.5,5.2c0,0.6-0.5,0.8-2.2,0.8c-4,0-6.1-1.9-6.1-5.5c0-3.5,2.6-5.2,8-5.3C150.6,139.8,152.1,139.9,152.1,140z"/><path fill="#000000" d="M190.3,135.2c-2.7,1.2-4.4,2.6-5.8,5c-1.2,2-1.4,2.9-1.6,7.9l-0.2,5.6l-1.7,0.3c-0.9,0.2-2.2,0.9-2.9,1.6l-1.3,1.3l-0.1,10.9c-0.2,15.8-1.4,15,20.6,15c17.1,0,18-0.1,19.8-3c0.9-1.5,1-2.4,1-11.7c0-9.7,0-10.1-1.1-11.7c-1-1.4-1.9-2-4.6-2.7c-0.4-0.1-0.6-1.6-0.6-5.1c0-5.7-0.6-7.6-3.3-10.4c-2.9-3-4.9-3.7-11.1-3.7C193.7,134.5,191.3,134.7,190.3,135.2z M202.4,141.2c2.6,1.3,3.5,3.4,3.3,8.4l-0.1,4.1h-8.3h-8.3l-0.1-4.1c-0.2-7,1.9-9.3,8.4-9.3C199.5,140.3,201.2,140.6,202.4,141.2z M207.2,163.3c0.5,0.9,0,1.6-5.2,6.8c-3.7,3.8-6.1,5.8-6.8,5.8c-0.6,0-2-1-3.4-2.4c-2.4-2.5-2.8-4-1.2-5.1c0.7-0.4,1.2-0.2,2.7,1.3l1.9,1.8l4.6-4.6C204.8,162.1,206.2,161.3,207.2,163.3z"/></g></g></g>
</svg>