<?xml version="1.0" encoding="utf-8"?>
<!-- Svg Vector Icons : http://www.onlinewebfonts.com/icon -->
<!DOCTYPE svg PUBLIC "-//W3C//DTD SVG 1.1//EN" "http://www.w3.org/Graphics/SVG/1.1/DTD/svg11.dtd">
<svg version="1.1" xmlns="http://www.w3.org/2000/svg" xmlns:xlink="http://www.w3.org/1999/xlink" x="0px" y="0px" viewBox="0 0 256 256" enable-background="new 0 0 256 256" xml:space="preserve">
<metadata> Svg Vector Icons : http://www.onlinewebfonts.com/icon </metadata>
<g><g><g><path fill="#000000" d="M113.9,16.2C82.7,19.8,59,35.8,45.1,62.7C38.4,75.8,33.9,92,32.5,108.4l-0.6,6.4l-3.8,1.3c-9.1,3-14.2,8.1-17.2,16.8c-1.2,3.6-1.2,14.1,0,18.6c2.9,10.7,10.3,18,21.3,20.8c2.9,0.8,11.1,1.2,11.6,0.7c0.1-0.1-0.1-2.6-0.6-5.5c-2.7-16.3-4-31.3-4-45.3c0-12.1,0.5-17.2,2.4-26.9c7.5-37.5,28.2-61.6,60.2-69.6c8.3-2.1,15.7-3,26.2-3c22.6,0,39.8,5.1,54.6,16.4c9.2,7,16.5,16.1,22.5,28.3c6.3,12.8,9.9,25.6,11.5,41.2c1.1,11.6,0,32.8-2.9,52.8c-0.5,3.5-0.9,6.4-0.9,6.5c0,0.3-3,3.6-3.3,3.6c-0.1,0-0.1-2.4,0-5.3c0.2-4.3,0.5-6.1,1.6-9l1.4-3.6v-17.4c0-17.8-0.2-22.1-2.1-33.8c-3-19-9.9-36.4-18.9-48.4c-9-11.8-20.2-19.9-33.8-24.5c-18.2-6.1-45.1-5.6-63.2,1.2c-29.3,11-46.8,39.7-50.3,82.3c-0.5,6.5-0.5,18.7,0,24.6c0.2,2.3,0,4.8-0.4,6.9c-0.8,4.1-0.2,9.7,1.6,14.2c0.9,2.2,1.2,3.9,1.2,6.3c0,4.6,0.8,15.8,1.8,24.5c1.5,14.1,1,23.7-2,36.5c-0.7,2.8-1.2,5.1-1.2,5.3c0,0.1,3.6,0.1,8,0c9.2-0.3,19.7-1.9,30.3-4.4l7-1.7l2.9,2.4c6.8,5.7,13.5,9.2,21.3,11.4c4.2,1.1,5.4,1.2,13.4,1.2c8.2,0,9.1,0,13.5-1.3c8-2.2,14.4-5.7,21.2-11.3l2.9-2.4l7,1.7c10.4,2.5,21.1,4.1,30.3,4.4c4.4,0.1,8,0.2,8,0c0-0.1-0.5-2.5-1.2-5.3c-3-12.8-3.5-22.3-2-36.4l0.8-7.3l4.9-4.7c4-3.8,5.1-4.7,6.3-4.7c5.1,0,13.8-4,18.1-8.3c5.1-5.1,7.7-11.6,8.2-20.8c0.8-13.8-5.9-24-18.2-27.7c-1.8-0.5-3.4-1-3.5-1.1c0,0-0.3-2.7-0.6-5.8c-3.3-39.3-21.3-69.7-49.7-83.8c-10-5-20.7-8-32.7-9.3C135.7,15.6,119.3,15.6,113.9,16.2z M139.8,32.8c36.7,4,59.2,31.3,64.6,78.6c1,8.2,1.5,21,1,21c-1.4,0-9.1-2-11.9-3c-11.1-4.2-19.9-12.3-25.2-23.4c-1.4-2.9-3-6.4-3.4-7.9c-0.4-1.4-1.1-3.3-1.5-4.2l-0.7-1.6l-2,3.3c-5.9,10-19.8,19.1-39.2,25.6c-17,5.8-38.8,9.3-64,10.6l-6.8,0.3v-6.9c0-16.2,2.7-33,7.3-45.8c10.1-28,29.6-43.4,58.5-46.5C122.3,32.3,134.4,32.2,139.8,32.8z M162.2,109.9c2,4.2,6.4,10.2,10,14c7.2,7.3,17.1,12.5,27.7,14.7c2.6,0.5,2.8,0.7,4.1,3c1.2,2.2,1.4,2.9,1.3,7c0,5.8-1.2,9.2-4.5,12.4c-2.6,2.6-4,3-9.9,3.5c-2.3,0.2-4,0.6-4.1,0.9c0,0.3-0.6,2.9-1.1,5.8c-1,5.6-3.3,13-5.8,19l-1.5,3.7l-3.5,1.6c-5,2.2-12.7,4.8-18.6,6.1c-7.1,1.6-7.4,1.6-8.5-0.7c-1.2-2.8-4.8-6.1-7.7-7.2c-2.2-0.9-3.7-1-12.1-1c-8.4,0-9.8,0.1-12.1,1c-3.2,1.2-6.2,4-7.7,7.3c-1.6,3.4-1.6,8.6,0,12c1.5,3.2,5.4,6.7,8.5,7.6c3.4,1,19.2,1,22.6,0c3.3-1,7.3-4.7,8.7-8l1-2.6l2.7-0.3c3.4-0.4,14.1-3.1,17.8-4.5c1.5-0.6,2.9-1,3-0.8c0.5,0.5-5.9,9.2-9.8,13.3c-9,9.5-18.5,14.4-30,15.6c-10.5,1.1-20.2-1.2-29.5-6.9c-5.3-3.3-13.3-11.5-17.6-18c-7.7-11.7-13.5-26.1-15.8-38.9l-0.8-4.6l-5.2-0.6c-6-0.7-8-1.7-10.6-5.6c-2.1-3.1-2.7-5.5-2.8-10.5c0-3.8,0.1-4.6,1.4-6.8c1.6-2.8,1.1-2.7,12-3.2c7.3-0.3,17.8-1.4,26.2-2.7c29.3-4.3,53.2-13.4,67.6-25.6c1.5-1.3,3-2.4,3.1-2.4C161,107.6,161.6,108.6,162.2,109.9z M31.9,126.3c0.1,2.2,0.4,6.2,0.5,9c0.4,6.3,1.5,17.2,2.5,24.4c0.4,3,0.6,5.7,0.5,5.9c-0.6,0.6-6.3-1.5-9.1-3.4c-3.5-2.3-6.6-6.4-8.1-10.6c-1-2.8-1.1-4.2-1.1-9.7c0-6,0.1-6.6,1.3-9.1c1.8-3.8,4.7-6.8,8.6-8.7c1.8-0.9,3.6-1.7,3.9-1.7C31.4,122.4,31.7,123.6,31.9,126.3z M228.8,124.1c4,2,6.9,4.9,8.6,8.7c1.2,2.5,1.3,3.2,1.3,9.1c0,5.5-0.1,6.9-1.1,9.7c-2.2,6.4-7.4,11.5-13.8,13.4c-1.6,0.5-3.1,0.8-3.2,0.6c-0.2-0.1,0.1-3.9,0.7-8.3c1.2-9.7,1.8-16,2.2-22.3c0.6-11,0.8-12.6,1.4-12.6C225.2,122.4,227,123.1,228.8,124.1z M56,170c1.1,0.5,3.2,1.1,4.6,1.3c2,0.2,2.5,0.5,2.5,1.1c0,1.3,3.1,11.8,5,17c3.5,9.3,9.5,20.5,14.6,27.2c1.1,1.4,1.9,2.6,1.7,2.7c-0.4,0.4-11.1,2.7-17,3.6c-9.4,1.4-13.4,1.7-13.4,0.9c0-0.4,0.4-3.2,1-6.4c1.2-7.4,1.2-17.1,0-29.3c-1.1-11.2-1.7-19.1-1.3-19.1C53.9,169.1,54.9,169.5,56,170z M202.1,172.3c-0.2,1.8-0.3,4-0.3,4.8c0,1.3-0.4,1.9-2.9,3.8c-4,3.1-10.1,7.3-10.3,7.1c-0.1-0.1,0.6-2.6,1.5-5.5c1-3,2-6.6,2.3-8.1l0.6-2.8l2.4-0.3c1.3-0.1,3.3-0.7,4.3-1.2c1-0.5,2.1-0.9,2.3-0.9C202.2,169.1,202.3,170.5,202.1,172.3z M200.4,192.9c-1,8.6-0.6,19,1.2,29.7l0.3,1.9l-3.8-0.3c-7.5-0.7-25.9-4-26.7-4.8c-0.1-0.1,0.8-1.5,2-3.2c2.8-3.7,6.8-10.3,8.7-14.1c1.4-2.7,1.8-3,5.6-5.2c2.3-1.3,6.1-3.7,8.5-5.3c2.4-1.6,4.4-2.9,4.4-2.8C200.7,188.8,200.6,190.7,200.4,192.9z M138.6,200.9c2,1.2,3.6,4.1,3.6,6.3c0,2-2,5.2-3.8,6.2c-1.4,0.8-2.8,0.9-10.5,0.9c-7.7,0-9.1-0.1-10.5-0.9c-1.8-0.9-3.8-4.2-3.8-6c0-2,1.5-4.9,3-6c2.1-1.5,3.7-1.7,12.3-1.6C136.3,199.8,136.8,199.8,138.6,200.9z"/></g></g></g>
</svg>